<?xml version="1.0" encoding="UTF-8" standalone="no"?>
<!DOCTYPE svg PUBLIC "-//W3C//DTD SVG 1.1//EN"
 "http://www.w3.org/Graphics/SVG/1.1/DTD/svg11.dtd">
<!-- Generated by graphviz version 2.40.1 (20161225.0304)
 -->
<!-- Title: dependencies Pages: 1 -->
<svg width="664pt" height="284pt"
 viewBox="0.00 0.00 664.00 284.00" xmlns="http://www.w3.org/2000/svg" xmlns:xlink="http://www.w3.org/1999/xlink">
<g id="graph0" class="graph" transform="scale(1 1) rotate(0) translate(4 280)">
<title>dependencies</title>
<polygon fill="#ffffff" stroke="transparent" points="-4,4 -4,-280 660,-280 660,4 -4,4"/>
<text text-anchor="start" x="307.0091" y="-42.4" font-family="sans-serif" font-weight="bold" font-size="14.00" fill="#000000">Legend</text>
<polygon fill="#ffffb3" stroke="transparent" points="94,-10 94,-30 114,-30 114,-10 94,-10"/>
<text text-anchor="start" x="117.629" y="-15.4" font-family="sans-serif" font-size="14.00" fill="#000000"> &#160;Declarations</text>
<polygon fill="#8dd3c7" stroke="transparent" points="207,-10 207,-30 227,-30 227,-10 207,-10"/>
<text text-anchor="start" x="230.7251" y="-15.4" font-family="sans-serif" font-size="14.00" fill="#000000"> &#160;Module</text>
<polygon fill="#80b1d3" stroke="transparent" points="293,-10 293,-30 313,-30 313,-10 293,-10"/>
<text text-anchor="start" x="316.7812" y="-15.4" font-family="sans-serif" font-size="14.00" fill="#000000"> &#160;Bootstrap</text>
<polygon fill="#fdb462" stroke="transparent" points="390,-10 390,-30 410,-30 410,-10 390,-10"/>
<text text-anchor="start" x="413.6732" y="-15.4" font-family="sans-serif" font-size="14.00" fill="#000000"> &#160;Providers</text>
<polygon fill="#fb8072" stroke="transparent" points="486,-10 486,-30 506,-30 506,-10 486,-10"/>
<text text-anchor="start" x="509.7258" y="-15.4" font-family="sans-serif" font-size="14.00" fill="#000000"> &#160;Exports</text>
<g id="clust1" class="cluster">
<title>cluster_SharedModule</title>
<polygon fill="none" stroke="#000000" stroke-dasharray="1,5" points="8,-70 8,-268 648,-268 648,-70 8,-70"/>
</g>
<g id="clust2" class="cluster">
<title>cluster_SharedModule_declarations</title>
<polygon fill="none" stroke="#000000" points="300,-78 300,-130 640,-130 640,-78 300,-78"/>
</g>
<g id="clust5" class="cluster">
<title>cluster_SharedModule_imports</title>
<polygon fill="none" stroke="#000000" points="170,-78 170,-130 292,-130 292,-78 170,-78"/>
</g>
<g id="clust6" class="cluster">
<title>cluster_SharedModule_exports</title>
<polygon fill="none" stroke="#000000" points="128,-208 128,-260 476,-260 476,-208 128,-208"/>
</g>
<g id="clust8" class="cluster">
<title>cluster_SharedModule_providers</title>
<polygon fill="none" stroke="#000000" points="16,-78 16,-130 162,-130 162,-78 16,-78"/>
</g>
<!-- ButtonNavComponent -->
<g id="node1" class="node">
<title>ButtonNavComponent</title>
<polygon fill="#ffffb3" stroke="#000000" points="632.2716,-122 489.7284,-122 489.7284,-86 632.2716,-86 632.2716,-122"/>
<text text-anchor="middle" x="561" y="-99.8" font-family="Times,serif" font-size="14.00" fill="#000000">ButtonNavComponent</text>
</g>
<!-- SharedModule -->
<g id="node3" class="node">
<title>SharedModule</title>
<polygon fill="#8dd3c7" stroke="#000000" points="356.4231,-187 353.4231,-191 332.4231,-191 329.4231,-187 257.5769,-187 257.5769,-151 356.4231,-151 356.4231,-187"/>
<text text-anchor="middle" x="307" y="-164.8" font-family="Times,serif" font-size="14.00" fill="#000000">SharedModule</text>
</g>
<!-- ButtonNavComponent&#45;&gt;SharedModule -->
<g id="edge1" class="edge">
<title>ButtonNavComponent&#45;&gt;SharedModule</title>
<path fill="none" stroke="#000000" d="M561,-122.1061C561,-141.3391 561,-169 561,-169 561,-169 366.2749,-169 366.2749,-169"/>
<polygon fill="#000000" stroke="#000000" points="366.275,-165.5001 356.2749,-169 366.2749,-172.5001 366.275,-165.5001"/>
</g>
<!-- LevelNavigateComponent -->
<g id="node2" class="node">
<title>LevelNavigateComponent</title>
<polygon fill="#ffffb3" stroke="#000000" points="471.7366,-122 308.2634,-122 308.2634,-86 471.7366,-86 471.7366,-122"/>
<text text-anchor="middle" x="390" y="-99.8" font-family="Times,serif" font-size="14.00" fill="#000000">LevelNavigateComponent</text>
</g>
<!-- LevelNavigateComponent&#45;&gt;SharedModule -->
<g id="edge2" class="edge">
<title>LevelNavigateComponent&#45;&gt;SharedModule</title>
<path fill="none" stroke="#000000" d="M332.1715,-122.1061C332.1715,-122.1061 332.1715,-140.991 332.1715,-140.991"/>
<polygon fill="#000000" stroke="#000000" points="328.6715,-140.9909 332.1715,-150.991 335.6715,-140.991 328.6715,-140.9909"/>
</g>
<!-- ButtonNavComponent  -->
<g id="node5" class="node">
<title>ButtonNavComponent </title>
<polygon fill="#fb8072" stroke="#000000" points="468.2717,-252 321.7283,-252 321.7283,-216 468.2717,-216 468.2717,-252"/>
<text text-anchor="middle" x="395" y="-229.8" font-family="Times,serif" font-size="14.00" fill="#000000">ButtonNavComponent </text>
</g>
<!-- SharedModule&#45;&gt;ButtonNavComponent  -->
<g id="edge4" class="edge">
<title>SharedModule&#45;&gt;ButtonNavComponent </title>
<path fill="none" stroke="#000000" stroke-dasharray="5,2" d="M339.0377,-187.1061C339.0377,-187.1061 339.0377,-205.991 339.0377,-205.991"/>
<polygon fill="#000000" stroke="#000000" points="335.5378,-205.9909 339.0377,-215.991 342.5378,-205.991 335.5378,-205.9909"/>
</g>
<!-- LevelNavigateComponent  -->
<g id="node6" class="node">
<title>LevelNavigateComponent </title>
<polygon fill="#fb8072" stroke="#000000" points="303.7366,-252 136.2634,-252 136.2634,-216 303.7366,-216 303.7366,-252"/>
<text text-anchor="middle" x="220" y="-229.8" font-family="Times,serif" font-size="14.00" fill="#000000">LevelNavigateComponent </text>
</g>
<!-- SharedModule&#45;&gt;LevelNavigateComponent  -->
<g id="edge5" class="edge">
<title>SharedModule&#45;&gt;LevelNavigateComponent </title>
<path fill="none" stroke="#000000" stroke-dasharray="5,2" d="M280.7036,-187.1061C280.7036,-187.1061 280.7036,-205.991 280.7036,-205.991"/>
<polygon fill="#000000" stroke="#000000" points="277.2036,-205.9909 280.7036,-215.991 284.2036,-205.991 277.2036,-205.9909"/>
</g>
<!-- MaterialModule -->
<g id="node4" class="node">
<title>MaterialModule</title>
<polygon fill="#8dd3c7" stroke="#000000" points="284.4706,-122 281.4706,-126 260.4706,-126 257.4706,-122 177.5294,-122 177.5294,-86 284.4706,-86 284.4706,-122"/>
<text text-anchor="middle" x="231" y="-99.8" font-family="Times,serif" font-size="14.00" fill="#000000">MaterialModule</text>
</g>
<!-- MaterialModule&#45;&gt;SharedModule -->
<g id="edge3" class="edge">
<title>MaterialModule&#45;&gt;SharedModule</title>
<path fill="none" stroke="#000000" d="M271.1371,-122.1061C271.1371,-122.1061 271.1371,-140.991 271.1371,-140.991"/>
<polygon fill="#000000" stroke="#000000" points="267.6372,-140.9909 271.1371,-150.991 274.6372,-140.991 267.6372,-140.9909"/>
</g>
<!-- NotifyService -->
<g id="node7" class="node">
<title>NotifyService</title>
<ellipse fill="#fdb462" stroke="#000000" cx="89" cy="-104" rx="65.4053" ry="18"/>
<text text-anchor="middle" x="89" y="-99.8" font-family="Times,serif" font-size="14.00" fill="#000000">NotifyService</text>
</g>
<!-- NotifyService&#45;&gt;SharedModule -->
<g id="edge6" class="edge">
<title>NotifyService&#45;&gt;SharedModule</title>
<path fill="none" stroke="#000000" d="M145.2921,-113.3129C145.2921,-131.286 145.2921,-169 145.2921,-169 145.2921,-169 247.6036,-169 247.6036,-169"/>
<polygon fill="#000000" stroke="#000000" points="247.6037,-172.5001 257.6036,-169 247.6036,-165.5001 247.6037,-172.5001"/>
</g>
</g>
</svg>
