<?xml version="1.0" encoding="UTF-8" standalone="no"?>
<!DOCTYPE svg PUBLIC "-//W3C//DTD SVG 1.1//EN"
 "http://www.w3.org/Graphics/SVG/1.1/DTD/svg11.dtd">
<!-- Generated by graphviz version 2.40.1 (20161225.0304)
 -->
<!-- Title: dependencies Pages: 1 -->
<svg width="504pt" height="284pt"
 viewBox="0.00 0.00 504.00 284.00" xmlns="http://www.w3.org/2000/svg" xmlns:xlink="http://www.w3.org/1999/xlink">
<g id="graph0" class="graph" transform="scale(1 1) rotate(0) translate(4 280)">
<title>dependencies</title>
<polygon fill="#ffffff" stroke="transparent" points="-4,4 -4,-280 500,-280 500,4 -4,4"/>
<text text-anchor="start" x="227.0091" y="-42.4" font-family="sans-serif" font-weight="bold" font-size="14.00" fill="#000000">Legend</text>
<polygon fill="#ffffb3" stroke="transparent" points="14,-10 14,-30 34,-30 34,-10 14,-10"/>
<text text-anchor="start" x="37.629" y="-15.4" font-family="sans-serif" font-size="14.00" fill="#000000"> &#160;Declarations</text>
<polygon fill="#8dd3c7" stroke="transparent" points="127,-10 127,-30 147,-30 147,-10 127,-10"/>
<text text-anchor="start" x="150.7251" y="-15.4" font-family="sans-serif" font-size="14.00" fill="#000000"> &#160;Module</text>
<polygon fill="#80b1d3" stroke="transparent" points="213,-10 213,-30 233,-30 233,-10 213,-10"/>
<text text-anchor="start" x="236.7812" y="-15.4" font-family="sans-serif" font-size="14.00" fill="#000000"> &#160;Bootstrap</text>
<polygon fill="#fdb462" stroke="transparent" points="310,-10 310,-30 330,-30 330,-10 310,-10"/>
<text text-anchor="start" x="333.6732" y="-15.4" font-family="sans-serif" font-size="14.00" fill="#000000"> &#160;Providers</text>
<polygon fill="#fb8072" stroke="transparent" points="406,-10 406,-30 426,-30 426,-10 406,-10"/>
<text text-anchor="start" x="429.7258" y="-15.4" font-family="sans-serif" font-size="14.00" fill="#000000"> &#160;Exports</text>
<g id="clust1" class="cluster">
<title>cluster_StopTheBreedModule</title>
<polygon fill="none" stroke="#000000" stroke-dasharray="1,5" points="27.5,-70 27.5,-268 468.5,-268 468.5,-70 27.5,-70"/>
</g>
<g id="clust2" class="cluster">
<title>cluster_StopTheBreedModule_declarations</title>
<polygon fill="none" stroke="#000000" points="282.5,-78 282.5,-130 460.5,-130 460.5,-78 282.5,-78"/>
</g>
<g id="clust4" class="cluster">
<title>cluster_StopTheBreedModule_imports</title>
<polygon fill="none" stroke="#000000" points="35.5,-78 35.5,-130 274.5,-130 274.5,-78 35.5,-78"/>
</g>
<g id="clust5" class="cluster">
<title>cluster_StopTheBreedModule_exports</title>
<polygon fill="none" stroke="#000000" points="122.5,-208 122.5,-260 304.5,-260 304.5,-208 122.5,-208"/>
</g>
<!-- StopTheBreedComponent -->
<g id="node1" class="node">
<title>StopTheBreedComponent</title>
<polygon fill="#ffffb3" stroke="#000000" points="452.6993,-122 290.3007,-122 290.3007,-86 452.6993,-86 452.6993,-122"/>
<text text-anchor="middle" x="371.5" y="-99.8" font-family="Times,serif" font-size="14.00" fill="#000000">StopTheBreedComponent</text>
</g>
<!-- StopTheBreedModule -->
<g id="node2" class="node">
<title>StopTheBreedModule</title>
<polygon fill="#8dd3c7" stroke="#000000" points="283.9172,-187 280.9172,-191 259.9172,-191 256.9172,-187 143.0828,-187 143.0828,-151 283.9172,-151 283.9172,-187"/>
<text text-anchor="middle" x="213.5" y="-164.8" font-family="Times,serif" font-size="14.00" fill="#000000">StopTheBreedModule</text>
</g>
<!-- StopTheBreedComponent&#45;&gt;StopTheBreedModule -->
<g id="edge1" class="edge">
<title>StopTheBreedComponent&#45;&gt;StopTheBreedModule</title>
<path fill="none" stroke="#000000" d="M290.3707,-104C281.3564,-104 275.3468,-104 275.3468,-104 275.3468,-104 275.3468,-140.8939 275.3468,-140.8939"/>
<polygon fill="#000000" stroke="#000000" points="271.8469,-140.8938 275.3468,-150.8939 278.8469,-140.8939 271.8469,-140.8938"/>
</g>
<!-- StopTheBreedComponent  -->
<g id="node5" class="node">
<title>StopTheBreedComponent </title>
<polygon fill="#fb8072" stroke="#000000" points="296.1995,-252 130.8005,-252 130.8005,-216 296.1995,-216 296.1995,-252"/>
<text text-anchor="middle" x="213.5" y="-229.8" font-family="Times,serif" font-size="14.00" fill="#000000">StopTheBreedComponent </text>
</g>
<!-- StopTheBreedModule&#45;&gt;StopTheBreedComponent  -->
<g id="edge4" class="edge">
<title>StopTheBreedModule&#45;&gt;StopTheBreedComponent </title>
<path fill="none" stroke="#000000" stroke-dasharray="5,2" d="M213.5,-187.1061C213.5,-187.1061 213.5,-205.991 213.5,-205.991"/>
<polygon fill="#000000" stroke="#000000" points="210.0001,-205.9909 213.5,-215.991 217.0001,-205.991 210.0001,-205.9909"/>
</g>
<!-- MaterialModule -->
<g id="node3" class="node">
<title>MaterialModule</title>
<polygon fill="#8dd3c7" stroke="#000000" points="266.9706,-122 263.9706,-126 242.9706,-126 239.9706,-122 160.0294,-122 160.0294,-86 266.9706,-86 266.9706,-122"/>
<text text-anchor="middle" x="213.5" y="-99.8" font-family="Times,serif" font-size="14.00" fill="#000000">MaterialModule</text>
</g>
<!-- MaterialModule&#45;&gt;StopTheBreedModule -->
<g id="edge2" class="edge">
<title>MaterialModule&#45;&gt;StopTheBreedModule</title>
<path fill="none" stroke="#000000" d="M213.5,-122.1061C213.5,-122.1061 213.5,-140.991 213.5,-140.991"/>
<polygon fill="#000000" stroke="#000000" points="210.0001,-140.9909 213.5,-150.991 217.0001,-140.991 210.0001,-140.9909"/>
</g>
<!-- SharedModule -->
<g id="node4" class="node">
<title>SharedModule</title>
<polygon fill="#8dd3c7" stroke="#000000" points="141.9231,-122 138.9231,-126 117.9231,-126 114.9231,-122 43.0769,-122 43.0769,-86 141.9231,-86 141.9231,-122"/>
<text text-anchor="middle" x="92.5" y="-99.8" font-family="Times,serif" font-size="14.00" fill="#000000">SharedModule</text>
</g>
<!-- SharedModule&#45;&gt;StopTheBreedModule -->
<g id="edge3" class="edge">
<title>SharedModule&#45;&gt;StopTheBreedModule</title>
<path fill="none" stroke="#000000" d="M136.1808,-122.1061C136.1808,-141.3391 136.1808,-169 136.1808,-169 136.1808,-169 136.8669,-169 136.8669,-169"/>
<polygon fill="#000000" stroke="#000000" points="133.0424,-172.5002 143.0423,-169 133.0423,-165.5002 133.0424,-172.5002"/>
</g>
</g>
</svg>
