<?xml version="1.0" encoding="UTF-8"?>
<svg viewBox="0 0 116.1633 374.53711" xmlns="http://www.w3.org/2000/svg">
 <g transform="translate(-243.16 -15.154)">
  <path d="m319.26 389.45c-0.33006-0.12656-1.2797-1.1421-2.1103-2.2567-1.2128-1.6274-1.8275-2.2125-3.1206-2.9705-1.9801-1.1606-2.7931-1.9928-3.3118-3.39-0.58968-1.5883-0.52966-4.533 0.13186-6.4711 0.3667-1.0743 0.44575-1.5817 0.25627-1.6448-0.47899-0.15966-1.2314-1.0865-1.8257-2.249-0.5622-1.0997-0.57955-1.3135-0.7301-9.0018-0.17887-9.133 0.26328-17.728 1.2511-24.319 1.7656-11.78 2.0165-14.006 2.016-17.884-5.5e-4 -4.9041-0.53973-20.292-0.82851-23.645-0.05115-0.59412-0.16616-2.0524-0.25552-3.2407s-0.19994-2.5818-0.24572-3.0968c-0.08707-0.97988-0.51488-6.347-0.71943-9.0257-0.06553-0.85818-0.22269-2.4245-0.34924-3.4807s-0.3999-3.4867-0.60743-5.4011-0.42465-3.8588-0.48252-4.3209-0.2738-2.4605-0.47984-4.4409-0.42299-3.9788-0.48213-4.4409c-0.11482-0.89707-0.60896-5.702-1.296-12.603-0.30104-3.0234-1.291-9.2574-1.9442-12.243-0.84421-3.8581-1.9544-7.6328-2.3866-8.1147-0.09525-0.10622-0.24475 2.8104-0.33221 6.4813-0.33501 14.061-0.94157 32.458-1.526 46.283-0.37998 8.9885-0.50365 30.628-0.19348 33.854 0.15845 1.6485 0.56609 6.5595 0.73661 8.8743 0.0778 1.0562 0.35578 2.9466 0.6177 4.2009l2.1326 10.206c2.63 12.584 2.701 13.768 1.6634 27.722-0.47571 6.3976-0.50893 6.6177-1.0765 7.1302l-0.58559 0.52893 0.60655 0.89382c0.82951 1.2223 0.91422 1.6959 0.78179 4.3699-0.18803 3.797-1.234 5.6044-3.4341 5.9344-1.5909 0.23856-1.8032 0.50108-2.135 2.6402-0.34265 2.2087-0.51508 2.6746-1.1071 2.9915-0.23714 0.12692-1.9798 0.57531-3.8726 0.9964-3.2584 0.72495-3.7603 0.77073-9.4426 0.86108l-6.0012 0.0954-1.0048-0.86394c-1.177-1.012-1.7558-2.6144-1.7558-4.8608 0-1.2645 0.13061-1.64 1.2398-3.5638 2.357-4.0883 4.5175-8.5872 4.268-8.8878-0.12907-0.15553-1.07-0.33369-2.0911-0.39595-3.6697-0.22374-6.3332-1.6522-6.6209-3.551-0.06983-0.4609-0.29744-4.1327-0.50579-8.1595s-0.6987-13.263-1.0897-20.524-0.92794-17.362-1.1932-22.445c-0.54784-10.499-0.64145-11.838-1.9457-27.846-0.52174-6.4033-1.0612-12.291-1.1988-13.083-0.49931-2.8743-3.2575-14.579-4.299-18.244-1.1646-4.0974-3.0128-13.065-5.5414-26.886-0.63807-3.4876-0.61181-3.4244-1.4972-3.599-1.2308-0.24274-2.0443-0.6177-2.1956-1.012-0.15368-0.40048 0.16317-3.3488 0.70404-6.5513 0.18954-1.1222 0.56767-3.4987 0.84032-5.2811s0.54152-3.5256 0.59753-3.8739c0.06786-0.42211-0.05677-0.77676-0.37388-1.0637-0.79031-0.71521-2.5589-3.5527-5.065-8.1261-2.8132-5.1338-2.7703-4.9497-3.5534-15.262-1.2418-16.353-1.7051-21.882-1.9342-23.079-0.45494-2.3768-0.96072-11.303-1.1134-19.651-0.1693-9.2551-0.28386-7.9346 2.0617-23.763 0.26412-1.7824 0.70193-4.753 0.97289-6.6014 1.8568-12.666 2.6189-16.156 4.226-19.35 1.2529-2.4903 2.6962-3.4643 8.1446-5.4968 6.8484-2.5547 18.369-7.374 19.826-8.2938 0.56445-0.35631 1.2993-1.2396 2.0233-2.4322 0.62532-1.03 2.1058-2.9382 3.29-4.2404s2.2904-2.7071 2.4583-3.1218 0.37148-2.2929 0.45242-4.1737l0.14717-3.4196-0.95698-1.4806c-0.52633-0.81435-1.0626-1.873-1.1918-2.3526-0.16628-0.61757-0.541-1.0878-1.2844-1.6118-1.2859-0.90639-2.2448-2.1266-2.4218-3.0818-0.18299-0.98731-0.57984-4.2348-0.74766-6.1183-0.3992-4.4808-0.57141-5.7248-0.91379-6.6014-0.72834-1.8646-0.41041-10.634 0.49168-13.563 0.35398-1.1493 0.74406-1.6545 3.013-3.9022 1.4334-1.42 3.4058-3.1214 4.383-3.7808 1.4896-1.0052 1.9542-1.1989 2.8757-1.1989 0.69467 0 1.5321-0.21945 2.2761-0.59646 3.6087-1.8287 6.4797-2.4802 8.5922-1.9499 0.7574 0.19014 1.9712 0.41501 2.6974 0.49974 2.5064 0.29242 5.3677 0.87887 6.0765 1.2454 0.93619 0.48413 6.987 6.4021 7.6721 7.5037 0.58288 0.93721 0.57746 0.84852 0.71371 11.679l0.06061 4.8192 0.70378 1.0179 0.70377 1.0179-0.29298 3.7364c-0.45635 5.8202-0.63714 6.4215-2.8008 9.3146-0.69115 0.92418-1.3261 2.0044-1.411 2.4005s0.01376 1.6924 0.21924 2.8806c0.30623 1.7708 0.5778 2.5037 1.5057 4.0634 1.2739 2.1413 3.2786 4.4128 5.1537 5.8397 1.5188 1.1557 9.394 4.6454 12.365 5.479l4.258 1.1895c13.05 3.6298 13.377 3.7436 14.78 5.147 1.0272 1.0272 1.1685 1.3137 1.6418 3.3298 1.285 5.4732 2.0962 13.987 3.3776 35.444 0.95492 15.991 1.0084 17.888 0.90604 32.167-0.10648 14.861-0.15353 15.653-1.3976 23.525-1.6557 10.477-3.3477 15.708-6.6594 20.587-0.64885 0.95589-1.8018 2.7069-2.5622 3.8912l-1.3826 2.1532 0.63097 6.2485c0.34701 3.4367 0.63013 7.4638 0.62915 8.9491l-0.00182 2.7006h-0.70834c-0.38958 0-1.2328 0.11245-1.8737 0.24993l-1.1654 0.24992 0.04403 4.6111c0.08102 8.4853-0.28418 16.206-0.9789 20.694-0.34737 2.2445-0.73491 5.5932-0.8612 7.4415-0.30124 4.4093-0.55956 7.3781-1.4098 16.203-0.98105 10.183-1.1755 15.675-1.3728 38.768-0.22555 26.398-0.22505 27.492 0.01955 43.105 0.16097 10.274 0.14261 13.463-0.07999 13.879-0.35168 0.65709-1.6978 1.2549-4.6351 2.0583-3.6345 0.99411-3.6633 1.4158-0.40794 5.9688 2.7152 3.7974 4.019 6.2826 4.2298 8.062 0.17905 1.5118-0.10245 1.9752-2.1272 3.5026-2.082 1.5705-3.2254 2.0093-6.29 2.4135-2.9483 0.38886-10.724 0.442-11.669 0.07975z"/>
  <path d="m314.06 106.58c0.34475-1.5843 0.78759-3.8528 0.9841-5.041 0.90734-5.487 3.0489-20.805 2.9259-20.928-0.03061-0.0306-1.0775 1.4653-2.3265 3.3243s-2.5229 3.5783-2.831 3.8207c-0.54926 0.4322-0.5797 0.42855-1.5603-0.18666-0.55006-0.3451-1.8751-1.4195-2.9445-2.3876l-1.9444-1.7602-1.8716 2.0559-1.8715 2.0559 1.472 2.1241c0.80962 1.1683 1.6785 2.6452 1.9309 3.282s1.1271 2.5621 1.9438 4.2785c2.178 4.577 4.2095 9.3891 4.6926 11.115 0.23292 0.83221 0.50228 1.4263 0.59856 1.3203s0.45713-1.4891 0.80189-3.0734z" fill="#fff"/>
  <path d="m294.29 104.16c0-1.4212 1.0038-6.4029 2.0734-10.29 0.47445-1.7242 1-3.8352 1.1679-4.6913 0.30388-1.5492 0.30201-1.5612-0.40124-2.5833-0.38859-0.5648-0.81907-1.3497-0.95659-1.7442s-0.32842-0.71734-0.42417-0.71734-1.3965 1.3553-2.8906 3.0118c-1.6633 1.8441-2.8634 2.9835-3.0954 2.9388-0.20837-0.04013-0.66585-0.64734-1.0166-1.3494-0.76885-1.5387-1.178-2.0157-1.178-1.3733 0 1.1292 4.097 13.348 5.663 16.889 0.65555 1.4823 1.0584 1.4479 1.0584-0.0905z" fill="#fff"/>
  <path d="m295.92 82.572c1.2192-1.4523 2.2837-2.8951 2.3656-3.2063 0.12936-0.49149-0.58601-1.3012-5.4493-6.1678-3.0791-3.0811-5.6768-5.5535-5.7728-5.4942s-0.2479 0.54234-0.33761 1.0734c-0.11243 0.66546-0.52969 1.3925-1.3426 2.3392-1.3578 1.5813-1.3596 1.0288 0.02122 6.2947 0.50201 1.9144 1.0381 4.1288 1.1914 4.921s0.89147 2.7198 1.6404 4.2835l1.3617 2.8433 2.0526-2.1231c1.129-1.1677 3.0502-3.3114 4.2694-4.7636z" fill="#fff"/>
  <path d="m314.85 84.132c3.1943-4.6014 3.338-4.9518 3.7873-9.2419 0.54282-5.1823 0.55516-5.0666-0.70519-6.603-0.59489-0.72522-1.1883-1.3186-1.3187-1.3186s-2.6953 2.3307-5.6998 5.1794-5.8919 5.5652-6.4165 6.0369c-0.92544 0.83208-0.94328 0.87721-0.60012 1.519 0.39394 0.73677 5.2736 5.6026 6.955 6.9354 0.59412 0.47091 1.2305 0.82861 1.4142 0.79489s1.3464-1.5196 2.5837-3.302z" fill="#fff"/>
 </g>
</svg>
