<?xml version="1.0" encoding="UTF-8" standalone="no"?>
<!DOCTYPE svg PUBLIC "-//W3C//DTD SVG 1.1//EN"
 "http://www.w3.org/Graphics/SVG/1.1/DTD/svg11.dtd">
<!-- Generated by graphviz version 2.40.1 (20161225.0304)
 -->
<!-- Title: dependencies Pages: 1 -->
<svg width="605pt" height="284pt"
 viewBox="0.00 0.00 605.00 284.00" xmlns="http://www.w3.org/2000/svg" xmlns:xlink="http://www.w3.org/1999/xlink">
<g id="graph0" class="graph" transform="scale(1 1) rotate(0) translate(4 280)">
<title>dependencies</title>
<polygon fill="#ffffff" stroke="transparent" points="-4,4 -4,-280 601,-280 601,4 -4,4"/>
<text text-anchor="start" x="277.5091" y="-42.4" font-family="sans-serif" font-weight="bold" font-size="14.00" fill="#000000">Legend</text>
<polygon fill="#ffffb3" stroke="transparent" points="64.5,-10 64.5,-30 84.5,-30 84.5,-10 64.5,-10"/>
<text text-anchor="start" x="88.129" y="-15.4" font-family="sans-serif" font-size="14.00" fill="#000000"> &#160;Declarations</text>
<polygon fill="#8dd3c7" stroke="transparent" points="177.5,-10 177.5,-30 197.5,-30 197.5,-10 177.5,-10"/>
<text text-anchor="start" x="201.2251" y="-15.4" font-family="sans-serif" font-size="14.00" fill="#000000"> &#160;Module</text>
<polygon fill="#80b1d3" stroke="transparent" points="263.5,-10 263.5,-30 283.5,-30 283.5,-10 263.5,-10"/>
<text text-anchor="start" x="287.2812" y="-15.4" font-family="sans-serif" font-size="14.00" fill="#000000"> &#160;Bootstrap</text>
<polygon fill="#fdb462" stroke="transparent" points="360.5,-10 360.5,-30 380.5,-30 380.5,-10 360.5,-10"/>
<text text-anchor="start" x="384.1732" y="-15.4" font-family="sans-serif" font-size="14.00" fill="#000000"> &#160;Providers</text>
<polygon fill="#fb8072" stroke="transparent" points="456.5,-10 456.5,-30 476.5,-30 476.5,-10 456.5,-10"/>
<text text-anchor="start" x="480.2258" y="-15.4" font-family="sans-serif" font-size="14.00" fill="#000000"> &#160;Exports</text>
<g id="clust1" class="cluster">
<title>cluster_StridesAgainstModule</title>
<polygon fill="none" stroke="#000000" stroke-dasharray="1,5" points="8,-70 8,-268 589,-268 589,-70 8,-70"/>
</g>
<g id="clust2" class="cluster">
<title>cluster_StridesAgainstModule_declarations</title>
<polygon fill="none" stroke="#000000" points="263,-78 263,-130 581,-130 581,-78 263,-78"/>
</g>
<g id="clust5" class="cluster">
<title>cluster_StridesAgainstModule_imports</title>
<polygon fill="none" stroke="#000000" points="16,-78 16,-130 255,-130 255,-78 16,-78"/>
</g>
<g id="clust6" class="cluster">
<title>cluster_StridesAgainstModule_exports</title>
<polygon fill="none" stroke="#000000" points="181,-208 181,-260 365,-260 365,-208 181,-208"/>
</g>
<!-- DialogComponent -->
<g id="node1" class="node">
<title>DialogComponent</title>
<polygon fill="#ffffb3" stroke="#000000" points="572.9356,-122 453.0644,-122 453.0644,-86 572.9356,-86 572.9356,-122"/>
<text text-anchor="middle" x="513" y="-99.8" font-family="Times,serif" font-size="14.00" fill="#000000">DialogComponent</text>
</g>
<!-- StridesAgainstModule -->
<g id="node3" class="node">
<title>StridesAgainstModule</title>
<polygon fill="#8dd3c7" stroke="#000000" points="343.9804,-187 340.9804,-191 319.9804,-191 316.9804,-187 202.0196,-187 202.0196,-151 343.9804,-151 343.9804,-187"/>
<text text-anchor="middle" x="273" y="-164.8" font-family="Times,serif" font-size="14.00" fill="#000000">StridesAgainstModule</text>
</g>
<!-- DialogComponent&#45;&gt;StridesAgainstModule -->
<g id="edge1" class="edge">
<title>DialogComponent&#45;&gt;StridesAgainstModule</title>
<path fill="none" stroke="#000000" d="M513,-122.1061C513,-141.3391 513,-169 513,-169 513,-169 354.0338,-169 354.0338,-169"/>
<polygon fill="#000000" stroke="#000000" points="354.0338,-165.5001 344.0338,-169 354.0337,-172.5001 354.0338,-165.5001"/>
</g>
<!-- StridesAgainstComponent -->
<g id="node2" class="node">
<title>StridesAgainstComponent</title>
<polygon fill="#ffffb3" stroke="#000000" points="434.7632,-122 271.2368,-122 271.2368,-86 434.7632,-86 434.7632,-122"/>
<text text-anchor="middle" x="353" y="-99.8" font-family="Times,serif" font-size="14.00" fill="#000000">StridesAgainstComponent</text>
</g>
<!-- StridesAgainstComponent&#45;&gt;StridesAgainstModule -->
<g id="edge2" class="edge">
<title>StridesAgainstComponent&#45;&gt;StridesAgainstModule</title>
<path fill="none" stroke="#000000" d="M307.5544,-122.1061C307.5544,-122.1061 307.5544,-140.991 307.5544,-140.991"/>
<polygon fill="#000000" stroke="#000000" points="304.0544,-140.9909 307.5544,-150.991 311.0544,-140.991 304.0544,-140.9909"/>
</g>
<!-- StridesAgainstComponent  -->
<g id="node6" class="node">
<title>StridesAgainstComponent </title>
<polygon fill="#fb8072" stroke="#000000" points="356.7632,-252 189.2368,-252 189.2368,-216 356.7632,-216 356.7632,-252"/>
<text text-anchor="middle" x="273" y="-229.8" font-family="Times,serif" font-size="14.00" fill="#000000">StridesAgainstComponent </text>
</g>
<!-- StridesAgainstModule&#45;&gt;StridesAgainstComponent  -->
<g id="edge5" class="edge">
<title>StridesAgainstModule&#45;&gt;StridesAgainstComponent </title>
<path fill="none" stroke="#000000" stroke-dasharray="5,2" d="M273,-187.1061C273,-187.1061 273,-205.991 273,-205.991"/>
<polygon fill="#000000" stroke="#000000" points="269.5001,-205.9909 273,-215.991 276.5001,-205.991 269.5001,-205.9909"/>
</g>
<!-- MaterialModule -->
<g id="node4" class="node">
<title>MaterialModule</title>
<polygon fill="#8dd3c7" stroke="#000000" points="247.4706,-122 244.4706,-126 223.4706,-126 220.4706,-122 140.5294,-122 140.5294,-86 247.4706,-86 247.4706,-122"/>
<text text-anchor="middle" x="194" y="-99.8" font-family="Times,serif" font-size="14.00" fill="#000000">MaterialModule</text>
</g>
<!-- MaterialModule&#45;&gt;StridesAgainstModule -->
<g id="edge3" class="edge">
<title>MaterialModule&#45;&gt;StridesAgainstModule</title>
<path fill="none" stroke="#000000" d="M224.7476,-122.1061C224.7476,-122.1061 224.7476,-140.991 224.7476,-140.991"/>
<polygon fill="#000000" stroke="#000000" points="221.2476,-140.9909 224.7476,-150.991 228.2476,-140.991 221.2476,-140.9909"/>
</g>
<!-- SharedModule -->
<g id="node5" class="node">
<title>SharedModule</title>
<polygon fill="#8dd3c7" stroke="#000000" points="122.4231,-122 119.4231,-126 98.4231,-126 95.4231,-122 23.5769,-122 23.5769,-86 122.4231,-86 122.4231,-122"/>
<text text-anchor="middle" x="73" y="-99.8" font-family="Times,serif" font-size="14.00" fill="#000000">SharedModule</text>
</g>
<!-- SharedModule&#45;&gt;StridesAgainstModule -->
<g id="edge4" class="edge">
<title>SharedModule&#45;&gt;StridesAgainstModule</title>
<path fill="none" stroke="#000000" d="M73,-122.1061C73,-141.3391 73,-169 73,-169 73,-169 191.9243,-169 191.9243,-169"/>
<polygon fill="#000000" stroke="#000000" points="191.9244,-172.5001 201.9243,-169 191.9243,-165.5001 191.9244,-172.5001"/>
</g>
</g>
</svg>
