<?xml version="1.0" encoding="UTF-8" standalone="no"?>
<!DOCTYPE svg PUBLIC "-//W3C//DTD SVG 1.1//EN"
 "http://www.w3.org/Graphics/SVG/1.1/DTD/svg11.dtd">
<!-- Generated by graphviz version 2.40.1 (20161225.0304)
 -->
<!-- Title: dependencies Pages: 1 -->
<svg width="9405pt" height="284pt"
 viewBox="0.00 0.00 9405.00 284.00" xmlns="http://www.w3.org/2000/svg" xmlns:xlink="http://www.w3.org/1999/xlink">
<g id="graph0" class="graph" transform="scale(1 1) rotate(0) translate(4 280)">
<title>dependencies</title>
<polygon fill="#ffffff" stroke="transparent" points="-4,4 -4,-280 9401,-280 9401,4 -4,4"/>
<text text-anchor="start" x="4677.5091" y="-42.4" font-family="sans-serif" font-weight="bold" font-size="14.00" fill="#000000">Legend</text>
<polygon fill="#ffffb3" stroke="transparent" points="4464.5,-10 4464.5,-30 4484.5,-30 4484.5,-10 4464.5,-10"/>
<text text-anchor="start" x="4488.129" y="-15.4" font-family="sans-serif" font-size="14.00" fill="#000000"> &#160;Declarations</text>
<polygon fill="#8dd3c7" stroke="transparent" points="4577.5,-10 4577.5,-30 4597.5,-30 4597.5,-10 4577.5,-10"/>
<text text-anchor="start" x="4601.2251" y="-15.4" font-family="sans-serif" font-size="14.00" fill="#000000"> &#160;Module</text>
<polygon fill="#80b1d3" stroke="transparent" points="4663.5,-10 4663.5,-30 4683.5,-30 4683.5,-10 4663.5,-10"/>
<text text-anchor="start" x="4687.2812" y="-15.4" font-family="sans-serif" font-size="14.00" fill="#000000"> &#160;Bootstrap</text>
<polygon fill="#fdb462" stroke="transparent" points="4760.5,-10 4760.5,-30 4780.5,-30 4780.5,-10 4760.5,-10"/>
<text text-anchor="start" x="4784.1732" y="-15.4" font-family="sans-serif" font-size="14.00" fill="#000000"> &#160;Providers</text>
<polygon fill="#fb8072" stroke="transparent" points="4856.5,-10 4856.5,-30 4876.5,-30 4876.5,-10 4856.5,-10"/>
<text text-anchor="start" x="4880.2258" y="-15.4" font-family="sans-serif" font-size="14.00" fill="#000000"> &#160;Exports</text>
<g id="clust1" class="cluster">
<title>cluster_AppModule</title>
<polygon fill="none" stroke="#000000" stroke-dasharray="1,5" points="8,-70 8,-268 9389,-268 9389,-70 8,-70"/>
</g>
<g id="clust2" class="cluster">
<title>cluster_AppModule_declarations</title>
<polygon fill="none" stroke="#000000" points="3568,-78 3568,-130 9381,-130 9381,-78 3568,-78"/>
</g>
<g id="clust38" class="cluster">
<title>cluster_AppModule_imports</title>
<polygon fill="none" stroke="#000000" points="2856,-78 2856,-130 3560,-130 3560,-78 2856,-78"/>
</g>
<g id="clust40" class="cluster">
<title>cluster_AppModule_bootstrap</title>
<polygon fill="none" stroke="#000000" points="4624,-208 4624,-260 4748,-260 4748,-208 4624,-208"/>
</g>
<g id="clust41" class="cluster">
<title>cluster_AppModule_providers</title>
<polygon fill="none" stroke="#000000" points="16,-78 16,-130 2848,-130 2848,-78 16,-78"/>
</g>
<!-- ActivityindicatorComponent -->
<g id="node1" class="node">
<title>ActivityindicatorComponent</title>
<polygon fill="#ffffb3" stroke="#000000" points="9373.4776,-122 9196.5224,-122 9196.5224,-86 9373.4776,-86 9373.4776,-122"/>
<text text-anchor="middle" x="9285" y="-99.8" font-family="Times,serif" font-size="14.00" fill="#000000">ActivityindicatorComponent</text>
</g>
<!-- AppModule -->
<g id="node36" class="node">
<title>AppModule</title>
<polygon fill="#8dd3c7" stroke="#000000" points="4727.6571,-187 4724.6571,-191 4703.6571,-191 4700.6571,-187 4644.3429,-187 4644.3429,-151 4727.6571,-151 4727.6571,-187"/>
<text text-anchor="middle" x="4686" y="-164.8" font-family="Times,serif" font-size="14.00" fill="#000000">AppModule</text>
</g>
<!-- ActivityindicatorComponent&#45;&gt;AppModule -->
<g id="edge1" class="edge">
<title>ActivityindicatorComponent&#45;&gt;AppModule</title>
<path fill="none" stroke="#000000" d="M9285,-122.1985C9285,-146.3563 9285,-186 9285,-186 9285,-186 4737.8746,-186 4737.8746,-186"/>
<polygon fill="#000000" stroke="#000000" points="4737.8746,-182.5001 4727.8746,-186 4737.8746,-189.5001 4737.8746,-182.5001"/>
</g>
<!-- ActivityintroComponent -->
<g id="node2" class="node">
<title>ActivityintroComponent</title>
<polygon fill="#ffffb3" stroke="#000000" points="9178.6582,-122 9025.3418,-122 9025.3418,-86 9178.6582,-86 9178.6582,-122"/>
<text text-anchor="middle" x="9102" y="-99.8" font-family="Times,serif" font-size="14.00" fill="#000000">ActivityintroComponent</text>
</g>
<!-- ActivityintroComponent&#45;&gt;AppModule -->
<g id="edge2" class="edge">
<title>ActivityintroComponent&#45;&gt;AppModule</title>
<path fill="none" stroke="#000000" d="M9102,-122.3802C9102,-146.2785 9102,-185 9102,-185 9102,-185 4737.94,-185 4737.94,-185"/>
<polygon fill="#000000" stroke="#000000" points="4737.9401,-181.5001 4727.94,-185 4737.94,-188.5001 4737.9401,-181.5001"/>
</g>
<!-- AnimatedVideoComponent -->
<g id="node3" class="node">
<title>AnimatedVideoComponent</title>
<polygon fill="#ffffb3" stroke="#000000" points="9007.252,-122 8836.748,-122 8836.748,-86 9007.252,-86 9007.252,-122"/>
<text text-anchor="middle" x="8922" y="-99.8" font-family="Times,serif" font-size="14.00" fill="#000000">AnimatedVideoComponent</text>
</g>
<!-- AnimatedVideoComponent&#45;&gt;AppModule -->
<g id="edge3" class="edge">
<title>AnimatedVideoComponent&#45;&gt;AppModule</title>
<path fill="none" stroke="#000000" d="M8922,-122.1532C8922,-145.7566 8922,-184 8922,-184 8922,-184 4737.9252,-184 4737.9252,-184"/>
<polygon fill="#000000" stroke="#000000" points="4737.9252,-180.5001 4727.9252,-184 4737.9251,-187.5001 4737.9252,-180.5001"/>
</g>
<!-- AppComponent -->
<g id="node4" class="node">
<title>AppComponent</title>
<polygon fill="#ffffb3" stroke="#000000" points="8818.9399,-122 8713.0601,-122 8713.0601,-86 8818.9399,-86 8818.9399,-122"/>
<text text-anchor="middle" x="8766" y="-99.8" font-family="Times,serif" font-size="14.00" fill="#000000">AppComponent</text>
</g>
<!-- AppComponent&#45;&gt;AppModule -->
<g id="edge4" class="edge">
<title>AppComponent&#45;&gt;AppModule</title>
<path fill="none" stroke="#000000" d="M8766,-122.3228C8766,-145.6602 8766,-183 8766,-183 8766,-183 4737.7102,-183 4737.7102,-183"/>
<polygon fill="#000000" stroke="#000000" points="4737.7102,-179.5001 4727.7102,-183 4737.7101,-186.5001 4737.7102,-179.5001"/>
</g>
<!-- BadgeComponent -->
<g id="node5" class="node">
<title>BadgeComponent</title>
<polygon fill="#ffffb3" stroke="#000000" points="8695.5982,-122 8578.4018,-122 8578.4018,-86 8695.5982,-86 8695.5982,-122"/>
<text text-anchor="middle" x="8637" y="-99.8" font-family="Times,serif" font-size="14.00" fill="#000000">BadgeComponent</text>
</g>
<!-- BadgeComponent&#45;&gt;AppModule -->
<g id="edge5" class="edge">
<title>BadgeComponent&#45;&gt;AppModule</title>
<path fill="none" stroke="#000000" d="M8637,-122.2479C8637,-145.0179 8637,-181 8637,-181 8637,-181 4737.6983,-181 4737.6983,-181"/>
<polygon fill="#000000" stroke="#000000" points="4737.6983,-177.5001 4727.6983,-181 4737.6982,-184.5001 4737.6983,-177.5001"/>
</g>
<!-- CertificateComponent -->
<g id="node6" class="node">
<title>CertificateComponent</title>
<polygon fill="#ffffb3" stroke="#000000" points="8560.4116,-122 8419.5884,-122 8419.5884,-86 8560.4116,-86 8560.4116,-122"/>
<text text-anchor="middle" x="8490" y="-99.8" font-family="Times,serif" font-size="14.00" fill="#000000">CertificateComponent</text>
</g>
<!-- CertificateComponent&#45;&gt;AppModule -->
<g id="edge6" class="edge">
<title>CertificateComponent&#45;&gt;AppModule</title>
<path fill="none" stroke="#000000" d="M8490,-122.0109C8490,-144.4852 8490,-180 8490,-180 8490,-180 4737.7466,-180 4737.7466,-180"/>
<polygon fill="#000000" stroke="#000000" points="4737.7466,-176.5001 4727.7466,-180 4737.7465,-183.5001 4737.7466,-176.5001"/>
</g>
<!-- DisclaimerComponent -->
<g id="node7" class="node">
<title>DisclaimerComponent</title>
<polygon fill="#ffffb3" stroke="#000000" points="8401.2506,-122 8258.7494,-122 8258.7494,-86 8401.2506,-86 8401.2506,-122"/>
<text text-anchor="middle" x="8330" y="-99.8" font-family="Times,serif" font-size="14.00" fill="#000000">DisclaimerComponent</text>
</g>
<!-- DisclaimerComponent&#45;&gt;AppModule -->
<g id="edge7" class="edge">
<title>DisclaimerComponent&#45;&gt;AppModule</title>
<path fill="none" stroke="#000000" d="M8330,-122.1554C8330,-144.3519 8330,-179 8330,-179 8330,-179 4737.8673,-179 4737.8673,-179"/>
<polygon fill="#000000" stroke="#000000" points="4737.8673,-175.5001 4727.8673,-179 4737.8672,-182.5001 4737.8673,-175.5001"/>
</g>
<!-- DoctorchatComponent -->
<g id="node8" class="node">
<title>DoctorchatComponent</title>
<polygon fill="#ffffb3" stroke="#000000" points="8240.5254,-122 8097.4746,-122 8097.4746,-86 8240.5254,-86 8240.5254,-122"/>
<text text-anchor="middle" x="8169" y="-99.8" font-family="Times,serif" font-size="14.00" fill="#000000">DoctorchatComponent</text>
</g>
<!-- DoctorchatComponent&#45;&gt;AppModule -->
<g id="edge8" class="edge">
<title>DoctorchatComponent&#45;&gt;AppModule</title>
<path fill="none" stroke="#000000" d="M8169,-122.2921C8169,-144.2057 8169,-178 8169,-178 8169,-178 4737.8503,-178 4737.8503,-178"/>
<polygon fill="#000000" stroke="#000000" points="4737.8504,-174.5001 4727.8503,-178 4737.8503,-181.5001 4737.8504,-174.5001"/>
</g>
<!-- DragdropComponent -->
<g id="node9" class="node">
<title>DragdropComponent</title>
<polygon fill="#ffffb3" stroke="#000000" points="8079.4748,-122 7944.5252,-122 7944.5252,-86 8079.4748,-86 8079.4748,-122"/>
<text text-anchor="middle" x="8012" y="-99.8" font-family="Times,serif" font-size="14.00" fill="#000000">DragdropComponent</text>
</g>
<!-- DragdropComponent&#45;&gt;AppModule -->
<g id="edge9" class="edge">
<title>DragdropComponent&#45;&gt;AppModule</title>
<path fill="none" stroke="#000000" d="M8012,-122.1686C8012,-143.498 8012,-176 8012,-176 8012,-176 4737.7514,-176 4737.7514,-176"/>
<polygon fill="#000000" stroke="#000000" points="4737.7514,-172.5001 4727.7514,-176 4737.7514,-179.5001 4737.7514,-172.5001"/>
</g>
<!-- ForgotPasswordComponent -->
<g id="node10" class="node">
<title>ForgotPasswordComponent</title>
<polygon fill="#ffffb3" stroke="#000000" points="7926.3201,-122 7753.6799,-122 7753.6799,-86 7926.3201,-86 7926.3201,-122"/>
<text text-anchor="middle" x="7840" y="-99.8" font-family="Times,serif" font-size="14.00" fill="#000000">ForgotPasswordComponent</text>
</g>
<!-- ForgotPasswordComponent&#45;&gt;AppModule -->
<g id="edge10" class="edge">
<title>ForgotPasswordComponent&#45;&gt;AppModule</title>
<path fill="none" stroke="#000000" d="M7840,-122.2843C7840,-143.3211 7840,-175 7840,-175 7840,-175 4737.9072,-175 4737.9072,-175"/>
<polygon fill="#000000" stroke="#000000" points="4737.9072,-171.5001 4727.9072,-175 4737.9071,-178.5001 4737.9072,-171.5001"/>
</g>
<!-- HeaderComponent -->
<g id="node11" class="node">
<title>HeaderComponent</title>
<polygon fill="#ffffb3" stroke="#000000" points="7735.7437,-122 7614.2563,-122 7614.2563,-86 7735.7437,-86 7735.7437,-122"/>
<text text-anchor="middle" x="7675" y="-99.8" font-family="Times,serif" font-size="14.00" fill="#000000">HeaderComponent</text>
</g>
<!-- HeaderComponent&#45;&gt;AppModule -->
<g id="edge11" class="edge">
<title>HeaderComponent&#45;&gt;AppModule</title>
<path fill="none" stroke="#000000" d="M7675,-122.0267C7675,-142.7672 7675,-174 7675,-174 7675,-174 4737.6829,-174 4737.6829,-174"/>
<polygon fill="#000000" stroke="#000000" points="4737.6829,-170.5001 4727.6829,-174 4737.6828,-177.5001 4737.6829,-170.5001"/>
</g>
<!-- HighlightActivityComponent -->
<g id="node12" class="node">
<title>HighlightActivityComponent</title>
<polygon fill="#ffffb3" stroke="#000000" points="7596.385,-122 7415.615,-122 7415.615,-86 7596.385,-86 7596.385,-122"/>
<text text-anchor="middle" x="7506" y="-99.8" font-family="Times,serif" font-size="14.00" fill="#000000">HighlightActivityComponent</text>
</g>
<!-- HighlightActivityComponent&#45;&gt;AppModule -->
<g id="edge12" class="edge">
<title>HighlightActivityComponent&#45;&gt;AppModule</title>
<path fill="none" stroke="#000000" d="M7506,-122.1289C7506,-142.5724 7506,-173 7506,-173 7506,-173 4737.7758,-173 4737.7758,-173"/>
<polygon fill="#000000" stroke="#000000" points="4737.7758,-169.5001 4727.7758,-173 4737.7758,-176.5001 4737.7758,-169.5001"/>
</g>
<!-- HowToPlayComponent -->
<g id="node13" class="node">
<title>HowToPlayComponent</title>
<polygon fill="#ffffb3" stroke="#000000" points="7397.486,-122 7248.514,-122 7248.514,-86 7397.486,-86 7397.486,-122"/>
<text text-anchor="middle" x="7323" y="-99.8" font-family="Times,serif" font-size="14.00" fill="#000000">HowToPlayComponent</text>
</g>
<!-- HowToPlayComponent&#45;&gt;AppModule -->
<g id="edge13" class="edge">
<title>HowToPlayComponent&#45;&gt;AppModule</title>
<path fill="none" stroke="#000000" d="M7323,-122.308C7323,-142.1455 7323,-171 7323,-171 7323,-171 4737.6868,-171 4737.6868,-171"/>
<polygon fill="#000000" stroke="#000000" points="4737.6868,-167.5001 4727.6868,-171 4737.6868,-174.5001 4737.6868,-167.5001"/>
</g>
<!-- InfokitComponent -->
<g id="node14" class="node">
<title>InfokitComponent</title>
<polygon fill="#ffffb3" stroke="#000000" points="7230.9356,-122 7111.0644,-122 7111.0644,-86 7230.9356,-86 7230.9356,-122"/>
<text text-anchor="middle" x="7171" y="-99.8" font-family="Times,serif" font-size="14.00" fill="#000000">InfokitComponent</text>
</g>
<!-- InfokitComponent&#45;&gt;AppModule -->
<g id="edge14" class="edge">
<title>InfokitComponent&#45;&gt;AppModule</title>
<path fill="none" stroke="#000000" d="M7171,-122.0348C7171,-141.5762 7171,-170 7171,-170 7171,-170 4737.8304,-170 4737.8304,-170"/>
<polygon fill="#000000" stroke="#000000" points="4737.8304,-166.5001 4727.8304,-170 4737.8303,-173.5001 4737.8304,-166.5001"/>
</g>
<!-- IntroductionComponent -->
<g id="node15" class="node">
<title>IntroductionComponent</title>
<polygon fill="#ffffb3" stroke="#000000" points="7093.0407,-122 6942.9593,-122 6942.9593,-86 7093.0407,-86 7093.0407,-122"/>
<text text-anchor="middle" x="7018" y="-99.8" font-family="Times,serif" font-size="14.00" fill="#000000">IntroductionComponent</text>
</g>
<!-- IntroductionComponent&#45;&gt;AppModule -->
<g id="edge15" class="edge">
<title>IntroductionComponent&#45;&gt;AppModule</title>
<path fill="none" stroke="#000000" d="M7018,-122.1061C7018,-141.3391 7018,-169 7018,-169 7018,-169 4737.965,-169 4737.965,-169"/>
<polygon fill="#000000" stroke="#000000" points="4737.9651,-165.5001 4727.965,-169 4737.965,-172.5001 4737.9651,-165.5001"/>
</g>
<!-- LeaderBoardComponent -->
<g id="node16" class="node">
<title>LeaderBoardComponent</title>
<polygon fill="#ffffb3" stroke="#000000" points="6925.4017,-122 6770.5983,-122 6770.5983,-86 6925.4017,-86 6925.4017,-122"/>
<text text-anchor="middle" x="6848" y="-99.8" font-family="Times,serif" font-size="14.00" fill="#000000">LeaderBoardComponent</text>
</g>
<!-- LeaderBoardComponent&#45;&gt;AppModule -->
<g id="edge16" class="edge">
<title>LeaderBoardComponent&#45;&gt;AppModule</title>
<path fill="none" stroke="#000000" d="M6848,-122.1686C6848,-141.0898 6848,-168 6848,-168 6848,-168 4737.7365,-168 4737.7365,-168"/>
<polygon fill="#000000" stroke="#000000" points="4737.7366,-164.5001 4727.7365,-168 4737.7365,-171.5001 4737.7366,-164.5001"/>
</g>
<!-- LoginComponent -->
<g id="node17" class="node">
<title>LoginComponent</title>
<polygon fill="#ffffb3" stroke="#000000" points="6752.2758,-122 6637.7242,-122 6637.7242,-86 6752.2758,-86 6752.2758,-122"/>
<text text-anchor="middle" x="6695" y="-99.8" font-family="Times,serif" font-size="14.00" fill="#000000">LoginComponent</text>
</g>
<!-- LoginComponent&#45;&gt;AppModule -->
<g id="edge17" class="edge">
<title>LoginComponent&#45;&gt;AppModule</title>
<path fill="none" stroke="#000000" d="M6695,-122.2667C6695,-140.5552 6695,-166 6695,-166 6695,-166 4737.9608,-166 4737.9608,-166"/>
<polygon fill="#000000" stroke="#000000" points="4737.9609,-162.5001 4727.9608,-166 4737.9608,-169.5001 4737.9609,-162.5001"/>
</g>
<!-- Malaria101Component -->
<g id="node18" class="node">
<title>Malaria101Component</title>
<polygon fill="#ffffb3" stroke="#000000" points="6619.8627,-122 6474.1373,-122 6474.1373,-86 6619.8627,-86 6619.8627,-122"/>
<text text-anchor="middle" x="6547" y="-99.8" font-family="Times,serif" font-size="14.00" fill="#000000">Malaria101Component</text>
</g>
<!-- Malaria101Component&#45;&gt;AppModule -->
<g id="edge18" class="edge">
<title>Malaria101Component&#45;&gt;AppModule</title>
<path fill="none" stroke="#000000" d="M6547,-122.302C6547,-140.2699 6547,-165 6547,-165 6547,-165 4737.9214,-165 4737.9214,-165"/>
<polygon fill="#000000" stroke="#000000" points="4737.9215,-161.5001 4727.9214,-165 4737.9214,-168.5001 4737.9215,-161.5001"/>
</g>
<!-- MalariaLifeCycleComponent -->
<g id="node19" class="node">
<title>MalariaLifeCycleComponent</title>
<polygon fill="#ffffb3" stroke="#000000" points="6456.3375,-122 6275.6625,-122 6275.6625,-86 6456.3375,-86 6456.3375,-122"/>
<text text-anchor="middle" x="6366" y="-99.8" font-family="Times,serif" font-size="14.00" fill="#000000">MalariaLifeCycleComponent</text>
</g>
<!-- MalariaLifeCycleComponent&#45;&gt;AppModule -->
<g id="edge19" class="edge">
<title>MalariaLifeCycleComponent&#45;&gt;AppModule</title>
<path fill="none" stroke="#000000" d="M6366,-122.002C6366,-139.6754 6366,-164 6366,-164 6366,-164 4737.9475,-164 4737.9475,-164"/>
<polygon fill="#000000" stroke="#000000" points="4737.9475,-160.5001 4727.9475,-164 4737.9474,-167.5001 4737.9475,-160.5001"/>
</g>
<!-- MatchmedsComponent -->
<g id="node20" class="node">
<title>MatchmedsComponent</title>
<polygon fill="#ffffb3" stroke="#000000" points="6257.147,-122 6110.853,-122 6110.853,-86 6257.147,-86 6257.147,-122"/>
<text text-anchor="middle" x="6184" y="-99.8" font-family="Times,serif" font-size="14.00" fill="#000000">MatchmedsComponent</text>
</g>
<!-- MatchmedsComponent&#45;&gt;AppModule -->
<g id="edge20" class="edge">
<title>MatchmedsComponent&#45;&gt;AppModule</title>
<path fill="none" stroke="#000000" d="M6184,-122.0225C6184,-139.3734 6184,-163 6184,-163 6184,-163 4738.023,-163 4738.023,-163"/>
<polygon fill="#000000" stroke="#000000" points="4738.0231,-159.5001 4728.023,-163 4738.023,-166.5001 4738.0231,-159.5001"/>
</g>
<!-- MedsNLabelsComponent -->
<g id="node21" class="node">
<title>MedsNLabelsComponent</title>
<polygon fill="#ffffb3" stroke="#000000" points="6092.8599,-122 5933.1401,-122 5933.1401,-86 6092.8599,-86 6092.8599,-122"/>
<text text-anchor="middle" x="6013" y="-99.8" font-family="Times,serif" font-size="14.00" fill="#000000">MedsNLabelsComponent</text>
</g>
<!-- MedsNLabelsComponent&#45;&gt;AppModule -->
<g id="edge21" class="edge">
<title>MedsNLabelsComponent&#45;&gt;AppModule</title>
<path fill="none" stroke="#000000" d="M6013,-122.0352C6013,-138.7344 6013,-161 6013,-161 6013,-161 4737.9062,-161 4737.9062,-161"/>
<polygon fill="#000000" stroke="#000000" points="4737.9062,-157.5001 4727.9062,-161 4737.9061,-164.5001 4737.9062,-157.5001"/>
</g>
<!-- MemoryGameComponent -->
<g id="node22" class="node">
<title>MemoryGameComponent</title>
<polygon fill="#ffffb3" stroke="#000000" points="5915.4692,-122 5752.5308,-122 5752.5308,-86 5915.4692,-86 5915.4692,-122"/>
<text text-anchor="middle" x="5834" y="-99.8" font-family="Times,serif" font-size="14.00" fill="#000000">MemoryGameComponent</text>
</g>
<!-- MemoryGameComponent&#45;&gt;AppModule -->
<g id="edge22" class="edge">
<title>MemoryGameComponent&#45;&gt;AppModule</title>
<path fill="none" stroke="#000000" d="M5834,-122.027C5834,-138.3976 5834,-160 5834,-160 5834,-160 4737.8771,-160 4737.8771,-160"/>
<polygon fill="#000000" stroke="#000000" points="4737.8772,-156.5001 4727.8771,-160 4737.8771,-163.5001 4737.8772,-156.5001"/>
</g>
<!-- MenuComponent -->
<g id="node23" class="node">
<title>MenuComponent</title>
<polygon fill="#ffffb3" stroke="#000000" points="5734.9916,-122 5621.0084,-122 5621.0084,-86 5734.9916,-86 5734.9916,-122"/>
<text text-anchor="middle" x="5678" y="-99.8" font-family="Times,serif" font-size="14.00" fill="#000000">MenuComponent</text>
</g>
<!-- MenuComponent&#45;&gt;AppModule -->
<g id="edge23" class="edge">
<title>MenuComponent&#45;&gt;AppModule</title>
<path fill="none" stroke="#000000" d="M5678,-122.0091C5678,-138.0494 5678,-159 5678,-159 5678,-159 4737.6762,-159 4737.6762,-159"/>
<polygon fill="#000000" stroke="#000000" points="4737.6762,-155.5001 4727.6762,-159 4737.6761,-162.5001 4737.6762,-155.5001"/>
</g>
<!-- NavbarComponent -->
<g id="node24" class="node">
<title>NavbarComponent</title>
<polygon fill="#ffffb3" stroke="#000000" points="5603.0297,-122 5480.9703,-122 5480.9703,-86 5603.0297,-86 5603.0297,-122"/>
<text text-anchor="middle" x="5542" y="-99.8" font-family="Times,serif" font-size="14.00" fill="#000000">NavbarComponent</text>
</g>
<!-- NavbarComponent&#45;&gt;AppModule -->
<g id="edge24" class="edge">
<title>NavbarComponent&#45;&gt;AppModule</title>
<path fill="none" stroke="#000000" d="M5542,-122.2819C5542,-137.9478 5542,-158 5542,-158 5542,-158 4737.8661,-158 4737.8661,-158"/>
<polygon fill="#000000" stroke="#000000" points="4737.8662,-154.5001 4727.8661,-158 4737.8661,-161.5001 4737.8662,-154.5001"/>
</g>
<!-- OddOneOutComponent -->
<g id="node25" class="node">
<title>OddOneOutComponent</title>
<polygon fill="#ffffb3" stroke="#000000" points="5462.7576,-122 5313.2424,-122 5313.2424,-86 5462.7576,-86 5462.7576,-122"/>
<text text-anchor="middle" x="5388" y="-99.8" font-family="Times,serif" font-size="14.00" fill="#000000">OddOneOutComponent</text>
</g>
<!-- OddOneOutComponent&#45;&gt;AppModule -->
<g id="edge25" class="edge">
<title>OddOneOutComponent&#45;&gt;AppModule</title>
<path fill="none" stroke="#000000" d="M5388,-122.1871C5388,-137.1824 5388,-156 5388,-156 5388,-156 4737.811,-156 4737.811,-156"/>
<polygon fill="#000000" stroke="#000000" points="4737.811,-152.5001 4727.811,-156 4737.811,-159.5001 4737.811,-152.5001"/>
</g>
<!-- PcpolicyComponent -->
<g id="node26" class="node">
<title>PcpolicyComponent</title>
<polygon fill="#ffffb3" stroke="#000000" points="5295.3258,-122 5164.6742,-122 5164.6742,-86 5295.3258,-86 5295.3258,-122"/>
<text text-anchor="middle" x="5230" y="-99.8" font-family="Times,serif" font-size="14.00" fill="#000000">PcpolicyComponent</text>
</g>
<!-- PcpolicyComponent&#45;&gt;AppModule -->
<g id="edge26" class="edge">
<title>PcpolicyComponent&#45;&gt;AppModule</title>
<path fill="none" stroke="#000000" d="M5230,-122.1243C5230,-136.7832 5230,-155 5230,-155 5230,-155 4737.7835,-155 4737.7835,-155"/>
<polygon fill="#000000" stroke="#000000" points="4737.7835,-151.5001 4727.7835,-155 4737.7834,-158.5001 4737.7835,-151.5001"/>
</g>
<!-- PerformanceDisplayComponent -->
<g id="node27" class="node">
<title>PerformanceDisplayComponent</title>
<polygon fill="#ffffb3" stroke="#000000" points="5147.3932,-122 4950.6068,-122 4950.6068,-86 5147.3932,-86 5147.3932,-122"/>
<text text-anchor="middle" x="5049" y="-99.8" font-family="Times,serif" font-size="14.00" fill="#000000">PerformanceDisplayComponent</text>
</g>
<!-- PerformanceDisplayComponent&#45;&gt;AppModule -->
<g id="edge27" class="edge">
<title>PerformanceDisplayComponent&#45;&gt;AppModule</title>
<path fill="none" stroke="#000000" d="M5049,-122.0511C5049,-136.373 5049,-154 5049,-154 5049,-154 4737.9953,-154 4737.9953,-154"/>
<polygon fill="#000000" stroke="#000000" points="4737.9954,-150.5001 4727.9953,-154 4737.9953,-157.5001 4737.9954,-150.5001"/>
</g>
<!-- PicturePuzzleComponent -->
<g id="node28" class="node">
<title>PicturePuzzleComponent</title>
<polygon fill="#ffffb3" stroke="#000000" points="4933.3033,-122 4774.6967,-122 4774.6967,-86 4933.3033,-86 4933.3033,-122"/>
<text text-anchor="middle" x="4854" y="-99.8" font-family="Times,serif" font-size="14.00" fill="#000000">PicturePuzzleComponent</text>
</g>
<!-- PicturePuzzleComponent&#45;&gt;AppModule -->
<g id="edge28" class="edge">
<title>PicturePuzzleComponent&#45;&gt;AppModule</title>
<path fill="none" stroke="#000000" d="M4854,-122.2458C4854,-136.1772 4854,-153 4854,-153 4854,-153 4737.9601,-153 4737.9601,-153"/>
<polygon fill="#000000" stroke="#000000" points="4737.9602,-149.5001 4727.9601,-153 4737.9601,-156.5001 4737.9602,-149.5001"/>
</g>
<!-- PreventionComponent -->
<g id="node29" class="node">
<title>PreventionComponent</title>
<polygon fill="#ffffb3" stroke="#000000" points="4756.986,-122 4615.014,-122 4615.014,-86 4756.986,-86 4756.986,-122"/>
<text text-anchor="middle" x="4686" y="-99.8" font-family="Times,serif" font-size="14.00" fill="#000000">PreventionComponent</text>
</g>
<!-- PreventionComponent&#45;&gt;AppModule -->
<g id="edge29" class="edge">
<title>PreventionComponent&#45;&gt;AppModule</title>
<path fill="none" stroke="#000000" d="M4686,-122.1061C4686,-122.1061 4686,-140.991 4686,-140.991"/>
<polygon fill="#000000" stroke="#000000" points="4682.5001,-140.9909 4686,-150.991 4689.5001,-140.991 4682.5001,-140.9909"/>
</g>
<!-- RegisterComponent -->
<g id="node30" class="node">
<title>RegisterComponent</title>
<polygon fill="#ffffb3" stroke="#000000" points="4596.9846,-122 4469.0154,-122 4469.0154,-86 4596.9846,-86 4596.9846,-122"/>
<text text-anchor="middle" x="4533" y="-99.8" font-family="Times,serif" font-size="14.00" fill="#000000">RegisterComponent</text>
</g>
<!-- RegisterComponent&#45;&gt;AppModule -->
<g id="edge30" class="edge">
<title>RegisterComponent&#45;&gt;AppModule</title>
<path fill="none" stroke="#000000" d="M4533,-122.2458C4533,-136.1772 4533,-153 4533,-153 4533,-153 4634.1921,-153 4634.1921,-153"/>
<polygon fill="#000000" stroke="#000000" points="4634.1921,-156.5001 4644.1921,-153 4634.192,-149.5001 4634.1921,-156.5001"/>
</g>
<!-- ResetPasswordComponent -->
<g id="node31" class="node">
<title>ResetPasswordComponent</title>
<polygon fill="#ffffb3" stroke="#000000" points="4451.087,-122 4284.913,-122 4284.913,-86 4451.087,-86 4451.087,-122"/>
<text text-anchor="middle" x="4368" y="-99.8" font-family="Times,serif" font-size="14.00" fill="#000000">ResetPasswordComponent</text>
</g>
<!-- ResetPasswordComponent&#45;&gt;AppModule -->
<g id="edge31" class="edge">
<title>ResetPasswordComponent&#45;&gt;AppModule</title>
<path fill="none" stroke="#000000" d="M4368,-122.0511C4368,-136.373 4368,-154 4368,-154 4368,-154 4634.1001,-154 4634.1001,-154"/>
<polygon fill="#000000" stroke="#000000" points="4634.1001,-157.5001 4644.1001,-154 4634.1,-150.5001 4634.1001,-157.5001"/>
</g>
<!-- SplashscreenComponent -->
<g id="node32" class="node">
<title>SplashscreenComponent</title>
<polygon fill="#ffffb3" stroke="#000000" points="4267.4144,-122 4112.5856,-122 4112.5856,-86 4267.4144,-86 4267.4144,-122"/>
<text text-anchor="middle" x="4190" y="-99.8" font-family="Times,serif" font-size="14.00" fill="#000000">SplashscreenComponent</text>
</g>
<!-- SplashscreenComponent&#45;&gt;AppModule -->
<g id="edge32" class="edge">
<title>SplashscreenComponent&#45;&gt;AppModule</title>
<path fill="none" stroke="#000000" d="M4190,-122.1243C4190,-136.7832 4190,-155 4190,-155 4190,-155 4634.1388,-155 4634.1388,-155"/>
<polygon fill="#000000" stroke="#000000" points="4634.1388,-158.5001 4644.1388,-155 4634.1388,-151.5001 4634.1388,-158.5001"/>
</g>
<!-- StageCompleteComponent -->
<g id="node33" class="node">
<title>StageCompleteComponent</title>
<polygon fill="#ffffb3" stroke="#000000" points="4094.3724,-122 3927.6276,-122 3927.6276,-86 4094.3724,-86 4094.3724,-122"/>
<text text-anchor="middle" x="4011" y="-99.8" font-family="Times,serif" font-size="14.00" fill="#000000">StageCompleteComponent</text>
</g>
<!-- StageCompleteComponent&#45;&gt;AppModule -->
<g id="edge33" class="edge">
<title>StageCompleteComponent&#45;&gt;AppModule</title>
<path fill="none" stroke="#000000" d="M4011,-122.1871C4011,-137.1824 4011,-156 4011,-156 4011,-156 4634.2851,-156 4634.2851,-156"/>
<polygon fill="#000000" stroke="#000000" points="4634.2852,-159.5001 4644.2851,-156 4634.2851,-152.5001 4634.2852,-159.5001"/>
</g>
<!-- UnlockedStageComponent -->
<g id="node34" class="node">
<title>UnlockedStageComponent</title>
<polygon fill="#ffffb3" stroke="#000000" points="3909.3613,-122 3742.6387,-122 3742.6387,-86 3909.3613,-86 3909.3613,-122"/>
<text text-anchor="middle" x="3826" y="-99.8" font-family="Times,serif" font-size="14.00" fill="#000000">UnlockedStageComponent</text>
</g>
<!-- UnlockedStageComponent&#45;&gt;AppModule -->
<g id="edge34" class="edge">
<title>UnlockedStageComponent&#45;&gt;AppModule</title>
<path fill="none" stroke="#000000" d="M3826,-122.2819C3826,-137.9478 3826,-158 3826,-158 3826,-158 4634.2298,-158 4634.2298,-158"/>
<polygon fill="#000000" stroke="#000000" points="4634.2298,-161.5001 4644.2298,-158 4634.2297,-154.5001 4634.2298,-161.5001"/>
</g>
<!-- UserUpdateComponent -->
<g id="node35" class="node">
<title>UserUpdateComponent</title>
<polygon fill="#ffffb3" stroke="#000000" points="3724.1853,-122 3575.8147,-122 3575.8147,-86 3724.1853,-86 3724.1853,-122"/>
<text text-anchor="middle" x="3650" y="-99.8" font-family="Times,serif" font-size="14.00" fill="#000000">UserUpdateComponent</text>
</g>
<!-- UserUpdateComponent&#45;&gt;AppModule -->
<g id="edge35" class="edge">
<title>UserUpdateComponent&#45;&gt;AppModule</title>
<path fill="none" stroke="#000000" d="M3650,-122.0091C3650,-138.0494 3650,-159 3650,-159 3650,-159 4634.1044,-159 4634.1044,-159"/>
<polygon fill="#000000" stroke="#000000" points="4634.1045,-162.5001 4644.1044,-159 4634.1044,-155.5001 4634.1045,-162.5001"/>
</g>
<!-- AppComponent  -->
<g id="node42" class="node">
<title>AppComponent </title>
<polygon fill="#80b1d3" stroke="#000000" points="4740.439,-252 4631.561,-252 4631.561,-216 4740.439,-216 4740.439,-252"/>
<text text-anchor="middle" x="4686" y="-229.8" font-family="Times,serif" font-size="14.00" fill="#000000">AppComponent </text>
</g>
<!-- AppModule&#45;&gt;AppComponent  -->
<g id="edge41" class="edge">
<title>AppModule&#45;&gt;AppComponent </title>
<path fill="none" stroke="#000000" stroke-dasharray="1,5" d="M4686,-187.1061C4686,-187.1061 4686,-205.991 4686,-205.991"/>
<polygon fill="#000000" stroke="#000000" points="4682.5001,-205.9909 4686,-215.991 4689.5001,-205.991 4682.5001,-205.9909"/>
</g>
<!-- AppRoutingModule -->
<g id="node37" class="node">
<title>AppRoutingModule</title>
<polygon fill="#8dd3c7" stroke="#000000" points="3552.2744,-122 3549.2744,-126 3528.2744,-126 3525.2744,-122 3423.7256,-122 3423.7256,-86 3552.2744,-86 3552.2744,-122"/>
<text text-anchor="middle" x="3488" y="-99.8" font-family="Times,serif" font-size="14.00" fill="#000000">AppRoutingModule</text>
</g>
<!-- AppRoutingModule&#45;&gt;AppModule -->
<g id="edge36" class="edge">
<title>AppRoutingModule&#45;&gt;AppModule</title>
<path fill="none" stroke="#000000" d="M3488,-122.027C3488,-138.3976 3488,-160 3488,-160 3488,-160 4634.065,-160 4634.065,-160"/>
<polygon fill="#000000" stroke="#000000" points="4634.065,-163.5001 4644.065,-160 4634.065,-156.5001 4634.065,-163.5001"/>
</g>
<!-- MaterialModule -->
<g id="node38" class="node">
<title>MaterialModule</title>
<polygon fill="#8dd3c7" stroke="#000000" points="3405.4706,-122 3402.4706,-126 3381.4706,-126 3378.4706,-122 3298.5294,-122 3298.5294,-86 3405.4706,-86 3405.4706,-122"/>
<text text-anchor="middle" x="3352" y="-99.8" font-family="Times,serif" font-size="14.00" fill="#000000">MaterialModule</text>
</g>
<!-- MaterialModule&#45;&gt;AppModule -->
<g id="edge37" class="edge">
<title>MaterialModule&#45;&gt;AppModule</title>
<path fill="none" stroke="#000000" d="M3352,-122.0352C3352,-138.7344 3352,-161 3352,-161 3352,-161 4634.2437,-161 4634.2437,-161"/>
<polygon fill="#000000" stroke="#000000" points="4634.2438,-164.5001 4644.2437,-161 4634.2437,-157.5001 4634.2438,-164.5001"/>
</g>
<!-- SharedModule -->
<g id="node39" class="node">
<title>SharedModule</title>
<polygon fill="#8dd3c7" stroke="#000000" points="3280.4231,-122 3277.4231,-126 3256.4231,-126 3253.4231,-122 3181.5769,-122 3181.5769,-86 3280.4231,-86 3280.4231,-122"/>
<text text-anchor="middle" x="3231" y="-99.8" font-family="Times,serif" font-size="14.00" fill="#000000">SharedModule</text>
</g>
<!-- SharedModule&#45;&gt;AppModule -->
<g id="edge38" class="edge">
<title>SharedModule&#45;&gt;AppModule</title>
<path fill="none" stroke="#000000" d="M3231,-122.0225C3231,-139.3734 3231,-163 3231,-163 3231,-163 4634.0238,-163 4634.0238,-163"/>
<polygon fill="#000000" stroke="#000000" points="4634.0239,-166.5001 4644.0238,-163 4634.0238,-159.5001 4634.0239,-166.5001"/>
</g>
<!-- StopTheBreedModule -->
<g id="node40" class="node">
<title>StopTheBreedModule</title>
<polygon fill="#8dd3c7" stroke="#000000" points="3164.4172,-122 3161.4172,-126 3140.4172,-126 3137.4172,-122 3023.5828,-122 3023.5828,-86 3164.4172,-86 3164.4172,-122"/>
<text text-anchor="middle" x="3094" y="-99.8" font-family="Times,serif" font-size="14.00" fill="#000000">StopTheBreedModule</text>
</g>
<!-- StopTheBreedModule&#45;&gt;AppModule -->
<g id="edge39" class="edge">
<title>StopTheBreedModule&#45;&gt;AppModule</title>
<path fill="none" stroke="#000000" d="M3094,-122.002C3094,-139.6754 3094,-164 3094,-164 3094,-164 4634.2362,-164 4634.2362,-164"/>
<polygon fill="#000000" stroke="#000000" points="4634.2362,-167.5001 4644.2362,-164 4634.2361,-160.5001 4634.2362,-167.5001"/>
</g>
<!-- StridesAgainstModule -->
<g id="node41" class="node">
<title>StridesAgainstModule</title>
<polygon fill="#8dd3c7" stroke="#000000" points="3005.9804,-122 3002.9804,-126 2981.9804,-126 2978.9804,-122 2864.0196,-122 2864.0196,-86 3005.9804,-86 3005.9804,-122"/>
<text text-anchor="middle" x="2935" y="-99.8" font-family="Times,serif" font-size="14.00" fill="#000000">StridesAgainstModule</text>
</g>
<!-- StridesAgainstModule&#45;&gt;AppModule -->
<g id="edge40" class="edge">
<title>StridesAgainstModule&#45;&gt;AppModule</title>
<path fill="none" stroke="#000000" d="M2935,-122.302C2935,-140.2699 2935,-165 2935,-165 2935,-165 4634.015,-165 4634.015,-165"/>
<polygon fill="#000000" stroke="#000000" points="4634.015,-168.5001 4644.015,-165 4634.0149,-161.5001 4634.015,-168.5001"/>
</g>
<!-- APIService -->
<g id="node43" class="node">
<title>APIService</title>
<ellipse fill="#fdb462" stroke="#000000" cx="2784" cy="-104" rx="55.5927" ry="18"/>
<text text-anchor="middle" x="2784" y="-99.8" font-family="Times,serif" font-size="14.00" fill="#000000">APIService</text>
</g>
<!-- APIService&#45;&gt;AppModule -->
<g id="edge42" class="edge">
<title>APIService&#45;&gt;AppModule</title>
<path fill="none" stroke="#000000" d="M2784,-122.2667C2784,-140.5552 2784,-166 2784,-166 2784,-166 4634.0573,-166 4634.0573,-166"/>
<polygon fill="#000000" stroke="#000000" points="4634.0574,-169.5001 4644.0573,-166 4634.0573,-162.5001 4634.0574,-169.5001"/>
</g>
<!-- ActivityGuard -->
<g id="node44" class="node">
<title>ActivityGuard</title>
<ellipse fill="#fdb462" stroke="#000000" cx="2644" cy="-104" rx="66.6325" ry="18"/>
<text text-anchor="middle" x="2644" y="-99.8" font-family="Times,serif" font-size="14.00" fill="#000000">ActivityGuard</text>
</g>
<!-- ActivityGuard&#45;&gt;AppModule -->
<g id="edge43" class="edge">
<title>ActivityGuard&#45;&gt;AppModule</title>
<path fill="none" stroke="#000000" d="M2644,-122.1686C2644,-141.0898 2644,-168 2644,-168 2644,-168 4634.285,-168 4634.285,-168"/>
<polygon fill="#000000" stroke="#000000" points="4634.285,-171.5001 4644.285,-168 4634.2849,-164.5001 4634.285,-171.5001"/>
</g>
<!-- AuthService -->
<g id="node45" class="node">
<title>AuthService</title>
<ellipse fill="#fdb462" stroke="#000000" cx="2500" cy="-104" rx="59.1083" ry="18"/>
<text text-anchor="middle" x="2500" y="-99.8" font-family="Times,serif" font-size="14.00" fill="#000000">AuthService</text>
</g>
<!-- AuthService&#45;&gt;AppModule -->
<g id="edge44" class="edge">
<title>AuthService&#45;&gt;AppModule</title>
<path fill="none" stroke="#000000" d="M2500,-122.1061C2500,-141.3391 2500,-169 2500,-169 2500,-169 4634.2837,-169 4634.2837,-169"/>
<polygon fill="#000000" stroke="#000000" points="4634.2838,-172.5001 4644.2837,-169 4634.2837,-165.5001 4634.2838,-172.5001"/>
</g>
<!-- BadgeService -->
<g id="node46" class="node">
<title>BadgeService</title>
<ellipse fill="#fdb462" stroke="#000000" cx="2358" cy="-104" rx="64.8254" ry="18"/>
<text text-anchor="middle" x="2358" y="-99.8" font-family="Times,serif" font-size="14.00" fill="#000000">BadgeService</text>
</g>
<!-- BadgeService&#45;&gt;AppModule -->
<g id="edge45" class="edge">
<title>BadgeService&#45;&gt;AppModule</title>
<path fill="none" stroke="#000000" d="M2358,-122.0348C2358,-141.5762 2358,-170 2358,-170 2358,-170 4634.1069,-170 4634.1069,-170"/>
<polygon fill="#000000" stroke="#000000" points="4634.107,-173.5001 4644.1069,-170 4634.1069,-166.5001 4634.107,-173.5001"/>
</g>
<!-- BotService -->
<g id="node47" class="node">
<title>BotService</title>
<ellipse fill="#fdb462" stroke="#000000" cx="2221" cy="-104" rx="53.8885" ry="18"/>
<text text-anchor="middle" x="2221" y="-99.8" font-family="Times,serif" font-size="14.00" fill="#000000">BotService</text>
</g>
<!-- BotService&#45;&gt;AppModule -->
<g id="edge46" class="edge">
<title>BotService&#45;&gt;AppModule</title>
<path fill="none" stroke="#000000" d="M2221,-122.308C2221,-142.1455 2221,-171 2221,-171 2221,-171 4634.2496,-171 4634.2496,-171"/>
<polygon fill="#000000" stroke="#000000" points="4634.2496,-174.5001 4644.2496,-171 4634.2496,-167.5001 4634.2496,-174.5001"/>
</g>
<!-- CertificateService -->
<g id="node48" class="node">
<title>CertificateService</title>
<ellipse fill="#fdb462" stroke="#000000" cx="2068" cy="-104" rx="80.9872" ry="18"/>
<text text-anchor="middle" x="2068" y="-99.8" font-family="Times,serif" font-size="14.00" fill="#000000">CertificateService</text>
</g>
<!-- CertificateService&#45;&gt;AppModule -->
<g id="edge47" class="edge">
<title>CertificateService&#45;&gt;AppModule</title>
<path fill="none" stroke="#000000" d="M2068,-122.1289C2068,-142.5724 2068,-173 2068,-173 2068,-173 4634.0834,-173 4634.0834,-173"/>
<polygon fill="#000000" stroke="#000000" points="4634.0834,-176.5001 4644.0834,-173 4634.0833,-169.5001 4634.0834,-176.5001"/>
</g>
<!-- DashboardService -->
<g id="node49" class="node">
<title>DashboardService</title>
<ellipse fill="#fdb462" stroke="#000000" cx="1887" cy="-104" rx="81.6423" ry="18"/>
<text text-anchor="middle" x="1887" y="-99.8" font-family="Times,serif" font-size="14.00" fill="#000000">DashboardService</text>
</g>
<!-- DashboardService&#45;&gt;AppModule -->
<g id="edge48" class="edge">
<title>DashboardService&#45;&gt;AppModule</title>
<path fill="none" stroke="#000000" d="M1887,-122.0267C1887,-142.7672 1887,-174 1887,-174 1887,-174 4634.2608,-174 4634.2608,-174"/>
<polygon fill="#000000" stroke="#000000" points="4634.2609,-177.5001 4644.2608,-174 4634.2608,-170.5001 4634.2609,-177.5001"/>
</g>
<!-- DoctorService -->
<g id="node50" class="node">
<title>DoctorService</title>
<ellipse fill="#fdb462" stroke="#000000" cx="1720" cy="-104" rx="66.6113" ry="18"/>
<text text-anchor="middle" x="1720" y="-99.8" font-family="Times,serif" font-size="14.00" fill="#000000">DoctorService</text>
</g>
<!-- DoctorService&#45;&gt;AppModule -->
<g id="edge49" class="edge">
<title>DoctorService&#45;&gt;AppModule</title>
<path fill="none" stroke="#000000" d="M1720,-122.2843C1720,-143.3211 1720,-175 1720,-175 1720,-175 4634.0717,-175 4634.0717,-175"/>
<polygon fill="#000000" stroke="#000000" points="4634.0717,-178.5001 4644.0717,-175 4634.0717,-171.5001 4634.0717,-178.5001"/>
</g>
<!-- InfokitService -->
<g id="node51" class="node">
<title>InfokitService</title>
<ellipse fill="#fdb462" stroke="#000000" cx="1569" cy="-104" rx="66.0492" ry="18"/>
<text text-anchor="middle" x="1569" y="-99.8" font-family="Times,serif" font-size="14.00" fill="#000000">InfokitService</text>
</g>
<!-- InfokitService&#45;&gt;AppModule -->
<g id="edge50" class="edge">
<title>InfokitService&#45;&gt;AppModule</title>
<path fill="none" stroke="#000000" d="M1569,-122.1686C1569,-143.498 1569,-176 1569,-176 1569,-176 4634.2941,-176 4634.2941,-176"/>
<polygon fill="#000000" stroke="#000000" points="4634.2942,-179.5001 4644.2941,-176 4634.2941,-172.5001 4634.2942,-179.5001"/>
</g>
<!-- LanguageService -->
<g id="node52" class="node">
<title>LanguageService</title>
<ellipse fill="#fdb462" stroke="#000000" cx="1407" cy="-104" rx="78.1308" ry="18"/>
<text text-anchor="middle" x="1407" y="-99.8" font-family="Times,serif" font-size="14.00" fill="#000000">LanguageService</text>
</g>
<!-- LanguageService&#45;&gt;AppModule -->
<g id="edge51" class="edge">
<title>LanguageService&#45;&gt;AppModule</title>
<path fill="none" stroke="#000000" d="M1407,-122.2921C1407,-144.2057 1407,-178 1407,-178 1407,-178 4634.243,-178 4634.243,-178"/>
<polygon fill="#000000" stroke="#000000" points="4634.2431,-181.5001 4644.243,-178 4634.243,-174.5001 4634.2431,-181.5001"/>
</g>
<!-- LeaderBoardService -->
<g id="node53" class="node">
<title>LeaderBoardService</title>
<ellipse fill="#fdb462" stroke="#000000" cx="1221" cy="-104" rx="90.287" ry="18"/>
<text text-anchor="middle" x="1221" y="-99.8" font-family="Times,serif" font-size="14.00" fill="#000000">LeaderBoardService</text>
</g>
<!-- LeaderBoardService&#45;&gt;AppModule -->
<g id="edge52" class="edge">
<title>LeaderBoardService&#45;&gt;AppModule</title>
<path fill="none" stroke="#000000" d="M1221,-122.1554C1221,-144.3519 1221,-179 1221,-179 1221,-179 4634.0583,-179 4634.0583,-179"/>
<polygon fill="#000000" stroke="#000000" points="4634.0583,-182.5001 4644.0583,-179 4634.0582,-175.5001 4634.0583,-182.5001"/>
</g>
<!-- LoggedInGuard -->
<g id="node54" class="node">
<title>LoggedInGuard</title>
<ellipse fill="#fdb462" stroke="#000000" cx="1040" cy="-104" rx="72.9198" ry="18"/>
<text text-anchor="middle" x="1040" y="-99.8" font-family="Times,serif" font-size="14.00" fill="#000000">LoggedInGuard</text>
</g>
<!-- LoggedInGuard&#45;&gt;AppModule -->
<g id="edge53" class="edge">
<title>LoggedInGuard&#45;&gt;AppModule</title>
<path fill="none" stroke="#000000" d="M1040,-122.0109C1040,-144.4852 1040,-180 1040,-180 1040,-180 4634.1098,-180 4634.1098,-180"/>
<polygon fill="#000000" stroke="#000000" points="4634.1098,-183.5001 4644.1098,-180 4634.1097,-176.5001 4634.1098,-183.5001"/>
</g>
<!-- NavbarService -->
<g id="node55" class="node">
<title>NavbarService</title>
<ellipse fill="#fdb462" stroke="#000000" cx="881" cy="-104" rx="68.317" ry="18"/>
<text text-anchor="middle" x="881" y="-99.8" font-family="Times,serif" font-size="14.00" fill="#000000">NavbarService</text>
</g>
<!-- NavbarService&#45;&gt;AppModule -->
<g id="edge54" class="edge">
<title>NavbarService&#45;&gt;AppModule</title>
<path fill="none" stroke="#000000" d="M881,-122.2479C881,-145.0179 881,-181 881,-181 881,-181 4634.2425,-181 4634.2425,-181"/>
<polygon fill="#000000" stroke="#000000" points="4634.2425,-184.5001 4644.2425,-181 4634.2424,-177.5001 4634.2425,-184.5001"/>
</g>
<!-- PerformanceDisplayService -->
<g id="node56" class="node">
<title>PerformanceDisplayService</title>
<ellipse fill="#fdb462" stroke="#000000" cx="675" cy="-104" rx="119.2171" ry="18"/>
<text text-anchor="middle" x="675" y="-99.8" font-family="Times,serif" font-size="14.00" fill="#000000">PerformanceDisplayService</text>
</g>
<!-- PerformanceDisplayService&#45;&gt;AppModule -->
<g id="edge55" class="edge">
<title>PerformanceDisplayService&#45;&gt;AppModule</title>
<path fill="none" stroke="#000000" d="M675,-122.3228C675,-145.6602 675,-183 675,-183 675,-183 4634.3344,-183 4634.3344,-183"/>
<polygon fill="#000000" stroke="#000000" points="4634.3344,-186.5001 4644.3344,-183 4634.3344,-179.5001 4634.3344,-186.5001"/>
</g>
<!-- RegService -->
<g id="node57" class="node">
<title>RegService</title>
<ellipse fill="#fdb462" stroke="#000000" cx="482" cy="-104" rx="55.5946" ry="18"/>
<text text-anchor="middle" x="482" y="-99.8" font-family="Times,serif" font-size="14.00" fill="#000000">RegService</text>
</g>
<!-- RegService&#45;&gt;AppModule -->
<g id="edge56" class="edge">
<title>RegService&#45;&gt;AppModule</title>
<path fill="none" stroke="#000000" d="M482,-122.1532C482,-145.7566 482,-184 482,-184 482,-184 4634.0512,-184 4634.0512,-184"/>
<polygon fill="#000000" stroke="#000000" points="4634.0512,-187.5001 4644.0512,-184 4634.0511,-180.5001 4634.0512,-187.5001"/>
</g>
<!-- SharedDataService -->
<g id="node58" class="node">
<title>SharedDataService</title>
<ellipse fill="#fdb462" stroke="#000000" cx="323" cy="-104" rx="85.0676" ry="18"/>
<text text-anchor="middle" x="323" y="-99.8" font-family="Times,serif" font-size="14.00" fill="#000000">SharedDataService</text>
</g>
<!-- SharedDataService&#45;&gt;AppModule -->
<g id="edge57" class="edge">
<title>SharedDataService&#45;&gt;AppModule</title>
<path fill="none" stroke="#000000" d="M323,-122.3802C323,-146.2785 323,-185 323,-185 323,-185 4634.217,-185 4634.217,-185"/>
<polygon fill="#000000" stroke="#000000" points="4634.217,-188.5001 4644.217,-185 4634.2169,-181.5001 4634.217,-188.5001"/>
</g>
<!-- UnauthenticatedGuard -->
<g id="node59" class="node">
<title>UnauthenticatedGuard</title>
<ellipse fill="#fdb462" stroke="#000000" cx="122" cy="-104" rx="98.3966" ry="18"/>
<text text-anchor="middle" x="122" y="-99.8" font-family="Times,serif" font-size="14.00" fill="#000000">UnauthenticatedGuard</text>
</g>
<!-- UnauthenticatedGuard&#45;&gt;AppModule -->
<g id="edge58" class="edge">
<title>UnauthenticatedGuard&#45;&gt;AppModule</title>
<path fill="none" stroke="#000000" d="M122,-122.1985C122,-146.3563 122,-186 122,-186 122,-186 4634.089,-186 4634.089,-186"/>
<polygon fill="#000000" stroke="#000000" points="4634.0891,-189.5001 4644.089,-186 4634.089,-182.5001 4634.0891,-189.5001"/>
</g>
</g>
</svg>
